<?xml version="1.0" standalone="no"?><!DOCTYPE svg PUBLIC "-//W3C//DTD SVG 1.1//EN" "http://www.w3.org/Graphics/SVG/1.1/DTD/svg11.dtd"><svg t="1610544224404" class="icon" viewBox="0 0 1024 1024" version="1.1" xmlns="http://www.w3.org/2000/svg" p-id="5769" xmlns:xlink="http://www.w3.org/1999/xlink" width="200" height="200"><defs><style type="text/css"></style></defs><path d="M729.35530459 975.45123837l-31.26143986-29.97531876-59.69339291-60.61940638 89.78874701-91.19490514 26.56278163 26.18552987 148.81337095-149.60219056 68.62768192 49.62732039a166.56189893 166.56189893 0 0 1-30.5069081 42.1506345l-212.33084064 213.42833608z m174.21006682-356.78851614l-377.53802793-379.52722126h-203.67091119v-171.4834852h93.5956803a164.70987135 164.70987135 0 0 1 117.56906076 48.92424836l408.14781373 410.30850325a166.13318703 166.13318703 0 0 1 30.50692229 42.15063459l-68.61053796 49.62732026z" fill="#1296db" p-id="5770"></path><path d="M547.61712059 907.92105171a80.25426434 80.25426434 0 0 1-57.08684765-23.63043055l-410.30851754-410.32566095a80.27140841 80.27140841 0 0 1-23.66471816-57.10399187v-215.02313347a48.49552243 48.49552243 0 0 1 48.44409048-48.44407662h215.02311925c21.53833125 0 41.80767081 8.38554127 57.06970398 23.6132725l410.32566132 410.35994903c15.26203331 15.22773099 23.66471836 35.51422863 23.6647184 57.0868622s-8.40268529 41.85911661-23.68187664 57.10399173l-182.68134146 182.71564369a80.25426434 80.25426434 0 0 1-57.10399198 23.64757431z m-405.31834059-493.13503889l405.31834059 405.35264296 175.65052617-175.6848138-405.30119691-405.31834101h-175.66766985v175.65051185z" fill="#1296db" p-id="5771"></path><path d="M262.33720556 359.1739267m-51.4450316 0a51.44504569 51.44504569 0 1 0 102.89007717 0 51.44504569 51.44504569 0 1 0-102.89007717 0Z" fill="#1296db" p-id="5772"></path></svg>