<?xml version="1.0" standalone="no"?><!DOCTYPE svg PUBLIC "-//W3C//DTD SVG 1.1//EN" "http://www.w3.org/Graphics/SVG/1.1/DTD/svg11.dtd"><svg t="1610544283390" class="icon" viewBox="0 0 1024 1024" version="1.1" xmlns="http://www.w3.org/2000/svg" p-id="9911" xmlns:xlink="http://www.w3.org/1999/xlink" width="200" height="200"><defs><style type="text/css"></style></defs><path d="M512 128a384 384 0 1 0 0 768 384 384 0 0 0 0-768zM42.666667 512C42.666667 252.8 252.8 42.666667 512 42.666667s469.333333 210.133333 469.333333 469.333333-210.133333 469.333333-469.333333 469.333333S42.666667 771.2 42.666667 512z" fill="#75C82B" p-id="9912"></path><path d="M353.834667 268.501333a42.666667 42.666667 0 0 1 60.330666 0l102.997334 102.997334A128 128 0 0 1 554.666667 461.994667V768a42.666667 42.666667 0 1 1-85.333334 0v-306.005333a42.666667 42.666667 0 0 0-12.501333-30.165334L353.834667 328.832a42.666667 42.666667 0 0 1 0-60.330667z" fill="#75C82B" p-id="9913"></path><path d="M341.333333 512a42.666667 42.666667 0 0 1 42.666667-42.666667h256a42.666667 42.666667 0 0 1 0 85.333334H384a42.666667 42.666667 0 0 1-42.666667-42.666667zM341.333333 640a42.666667 42.666667 0 0 1 42.666667-42.666667h256a42.666667 42.666667 0 0 1 0 85.333334H384a42.666667 42.666667 0 0 1-42.666667-42.666667zM691.498667 268.501333a42.666667 42.666667 0 0 1 0 60.330667l-42.666667 42.666667a42.666667 42.666667 0 0 1-60.330667-60.330667l42.666667-42.666667a42.666667 42.666667 0 0 1 60.330667 0z" fill="#75C82B" p-id="9914"></path></svg>